<svg xmlns="http://www.w3.org/2000/svg">
  <!--Логотип (мобильный)-->
  <symbol  id="logo-mobile" width="33" height="38" viewBox="0 0 33 38" fill="none" xmlns="http://www.w3.org/2000/svg">
    <g clip-path="url(#a)">
      <path d="M6.012 20.935V18.65a139.135 139.135 0 0 1 19.976-1.343c0 .606 0 1.222-.06 1.838 1.9-.86 3.896-1.477 5.943-1.838a16.767 16.767 0 0 0-6.767-8.285 16.248 16.248 0 0 0-10.306-2.398c-3.6.374-6.98 1.945-9.62 4.47a16.948 16.948 0 0 0-4.99 9.506l5.824.334ZM26.978 24.481c-1.149 1.293-1.376 1.213-1.376 3.486v9.275a16.692 16.692 0 0 0 5.425-6.052A17.08 17.08 0 0 0 33 23.237c-.013-1.051-.12-2.1-.317-3.132a32.856 32.856 0 0 0-5.705 4.375ZM6.299 25.987s-3.754-1.455-5.14-1.85A8.33 8.33 0 0 0 0 23.856a17.066 17.066 0 0 0 2.463 8.233A16.633 16.633 0 0 0 8.598 38L6.299 25.987Z" fill="#FDC305"/>
      <path d="M26.038 17.297A92.52 92.52 0 0 0 24.65.657s-.139-1.304-.881-.243a14.583 14.583 0 0 0-1.189 3.981 68.295 68.295 0 0 0-12.647.344C9.15 2.02 7.774.758 7.11 1.01c-.664.253-.713 3.345-.713 3.345L6.071 18.6a139.094 139.094 0 0 1 19.967-1.303Z" fill="#F06351"/>
      <path d="M12.29 14.145c0-.09.991.687 1.397.93.406.242.604.424.604.596s-.267.343-.623.343c-.357 0-.902-.12-.99-.272h1.217a8.34 8.34 0 0 1-1.604-1.597ZM19.699 14.256l-1.08 1.344c0 .06-.168.354.179.303.41-.062.814-.16 1.208-.293.109 0 .07-.192-.109-.172-.178.02-.683.051-.99.112l.832-1.274s.069-.13-.04-.02ZM16.59 20.41c.458-.207.838-.562 1.079-1.01.277-.658 0-.92-.436-1.011a2.367 2.367 0 0 0-1.723.343c-.387.364-.337.728-.05 1.01.348.27.727.494 1.13.668Z" fill="#000"/>
      <path d="M16.193 21.672c-.111.231-.266.437-.456.607a1.693 1.693 0 0 1-.99.384 2.1 2.1 0 0 1-1.456-.435 2.289 2.289 0 0 1-.525-.444 1.059 1.059 0 0 0-.356-.263s.742 4.142 2.545 4.8c1.803.656 2.12-.759 2.179-1.143a5.758 5.758 0 0 0-.812-3.263c-.02-.313-.03-.111-.129-.243Z" fill="#F06351"/>
      <path d="M14.569 22.824a3.364 3.364 0 0 1-1.3-.474 3.437 3.437 0 0 1-1.039-1.007.145.145 0 0 1 .076-.187.136.136 0 0 1 .153.031 3.22 3.22 0 0 0 2.09 1.314c.328-.025.646-.13.927-.306.28-.176.516-.417.687-.704l.139-.192.099.212s.366.768.99.808c.624.04 1.04-.414 1.595-1.293a.138.138 0 0 1 .198 0c.032.02.055.053.064.09a.154.154 0 0 1-.015.112c-.633 1.01-1.257 1.455-1.861 1.414a1.518 1.518 0 0 1-.642-.253 1.555 1.555 0 0 1-.468-.514 2.255 2.255 0 0 1-.74.67c-.294.165-.62.26-.953.28Z" fill="#000"/>
      <path d="M25.988 19.116a58.7 58.7 0 0 0-5.021 5.244 31.579 31.579 0 0 1-5.24 4.94c-.217-.535-1.604-1.525-1.604-1.525s-3.1-2.162-5.13-3.86a34.1 34.1 0 0 1-3.1-3.03l-1.98-.112c2.861 4.25 7.05 7.384 11.884 8.892.852-.142 3.238-1.88 5.021-3.294a58.146 58.146 0 0 0 5.883-5.951c.498-.596.88-1.281 1.13-2.021-1.09.394-1.843.717-1.843.717Z" fill="#F06351"/>
    </g>
    <defs>
      <clipPath id="a">
        <rect width="33" height="38" fill="#fff"/>
      </clipPath>
    </defs>
  </symbol>
  <!--Логотип (десктоп)-->
<symbol id="logo" width="60" height="50" viewBox="0 0 60 50" fill="none" xmlns="http://www.w3.org/2000/svg">
    <path d="M51.208 19.05a22.293 22.293 0 0 0-6.886-9.125A21.672 21.672 0 0 0 33.896 5.51a21.504 21.504 0 0 0-11.197 1.469 21.954 21.954 0 0 0-8.992 6.962 22.581 22.581 0 0 0-4.399 10.607 22.76 22.76 0 0 0 1.364 11.433 22.31 22.31 0 0 0 6.763 9.22 21.684 21.684 0 0 0 10.367 4.56c-.496-1.823-1-3.839-1.446-5.976 1.294.856 2.656 1.6 4.071 2.225 0 0 .103 1.884.24 3.987 1.529.027 3.057-.11 4.558-.41a1.908 1.908 0 0 1 0-.663c.248-1.632.932-4.572 1.069-6.465a13.243 13.243 0 0 0 2.48-3.237l-.052.384c-.47 3.716-1.453 7.686-2.052 8.785a4.865 4.865 0 0 1-.71 1.004 21.747 21.747 0 0 0 8.501-4.158 22.278 22.278 0 0 0 6.004-7.416 22.77 22.77 0 0 0 .743-18.77Zm-1.257 3.308c-.376.375-1.154.628-1.283-.507a30.81 30.81 0 0 1-.162-1.928s-1.65-2.992-2.266-3.027c-.616-.035-4.986 3.027-6.14 4.362-1.001 1.126-1.198 1.047-1.198 3.028 0 1.491.188 7.127.086 11.437l-6.97 1.894a53.797 53.797 0 0 1-6.67 1.5l-.856-5.086h-.12l-2.197-11.49s-3.259-1.257-4.456-1.597a3.157 3.157 0 0 0-1.79-.235 3.189 3.189 0 0 0-1.63.785 4.418 4.418 0 0 0-1.1 1.515 4.499 4.499 0 0 0-.38 1.844c.18.405.318.83.41 1.265.043.419-1.026.375-1.71.375-.684 0-.787-1.256-.248-2.73.42-1.135.941-2.227 1.556-3.264a10.352 10.352 0 0 1 1.77-2.521s.12-.297 1.07-.21c.949.088 6.225.375 6.225.375l.043-1.98a119.71 119.71 0 0 1 17.31-1.169v1.597a18.947 18.947 0 0 1 6.96-1.745.765.765 0 0 1 .659.34c.29.375 2.06 2.617 2.266 2.94a24.51 24.51 0 0 1 1.565 2.617 5.493 5.493 0 0 1-.744 1.606v.009Z" fill="#FDC305"/>
    <path d="M48.284 17.018c.402.523.752.986.855 1.125a24.51 24.51 0 0 1 1.565 2.618 5.493 5.493 0 0 1-.735 1.553c-.377.375-1.155.628-1.283-.506-.128-1.134-.18-1.885-.18-1.885s-1.65-2.992-2.266-3.027c-.616-.035-4.986 3.027-6.14 4.362-1 1.126-1.197 1.047-1.197 3.028 0 1.308.145 5.801.11 9.797 1.549.175 3.823.61 4.508 1.64 0 0-.248-6.264 6.679-2.983 0 0 .239-8.542 9.8-6.352a37.507 37.507 0 0 0-11.716-9.37ZM39.279 14.994A80.462 80.462 0 0 0 38.08.572s-.128-1.134-.744-.209a12.63 12.63 0 0 0-1.026 3.49 59.424 59.424 0 0 0-10.963.296C24.647 1.75 23.449.66 22.876.948c-.573.287-.641 2.861-.641 2.861l-.282 12.354c5.74-.809 11.53-1.2 17.326-1.169Z" fill="#F06351"/>
    <path d="M38.782 39.222c.111-.934.171-2.172.205-3.542l-6.97 1.893a53.8 53.8 0 0 1-6.67 1.544l.95 4.363c0 .096 0 .191.06.287 1.294.856 2.655 1.6 4.07 2.225a36.127 36.127 0 0 0 5.884-3.603v.052a13.243 13.243 0 0 0 2.471-3.22Z" fill="#E55645"/>
    <path d="M27.366 12.263c-.043-.087.855.594 1.206.803.35.21.521.366.521.515 0 .148-.222.296-.53.296-.308 0-.787-.104-.855-.227-.068-.122.513 0 .804 0h.248a6.98 6.98 0 0 1-1.394-1.387ZM33.78 12.36s-.855 1.116-.932 1.168c-.077.053-.146.297.162.253a6.81 6.81 0 0 0 1.044-.244c.094-.052.06-.175-.103-.157-.163.017-.582.044-.855.096l.727-1.108s.025-.105-.043-.009ZM31.095 17.69c.396-.178.724-.485.932-.873.24-.575 0-.794-.377-.872a2.061 2.061 0 0 0-1.496.297c-.334.322-.29.636 0 .872.289.231.605.425.94.576Z" fill="#000"/>
    <path d="M30.787 18.79a1.785 1.785 0 0 1-.394.523c-.243.2-.543.316-.855.331-.47.047-.942-.09-1.317-.384a1.722 1.722 0 0 1-.453-.392.855.855 0 0 0-.308-.218s.641 3.585 2.198 4.161c1.556.576 1.847-.663 1.89-.994a4.99 4.99 0 0 0-.701-2.827c0-.262-.018-.087-.06-.2Z" fill="#F06351"/><path d="M29.333 19.784c-.4-.059-.785-.2-1.13-.414a3.016 3.016 0 0 1-.88-.834.132.132 0 0 1 0-.174.119.119 0 0 1 .132-.027.12.12 0 0 1 .04.027c.21.303.48.56.79.756.309.196.654.327 1.014.387a1.78 1.78 0 0 0 .804-.264c.244-.152.449-.36.598-.609l.12-.166.085.192s.325.663.856.698c.53.035.906-.366 1.393-1.125a.121.121 0 0 1 .171-.035.128.128 0 0 1 .034.174c-.57.855-1.108 1.265-1.616 1.23a1.309 1.309 0 0 1-.55-.207 1.34 1.34 0 0 1-.407-.43 1.946 1.946 0 0 1-.636.578c-.252.142-.531.225-.818.243Z" fill="#000"/>
    <path d="M31.009 31.527c1.771 0 3.207-1.465 3.207-3.272 0-1.807-1.436-3.271-3.207-3.271s-3.207 1.464-3.207 3.271 1.436 3.272 3.207 3.272Z" fill="#FDC305"/><path d="m35.259 25.594-2.677 1.143.984-4.912-6.414 8.515 2.677-1.142-.984 4.92 6.414-8.524Zm-6.32 3.342 3.558-4.72-.693 3.49 1.71-.716-3.583 4.729.693-3.49-1.684.707ZM27.742 27.653a.968.968 0 0 0 .958-.977.968.968 0 0 0-.958-.977.968.968 0 0 0-.957.977c0 .54.428.977.957.977ZM33.318 31.195a.683.683 0 0 0 .676-.689c0-.38-.303-.69-.676-.69a.683.683 0 0 0-.675.69c0 .38.302.69.675.69ZM34.14 29.302c.164 0 .298-.137.298-.305a.302.302 0 0 0-.299-.306c-.165 0-.3.137-.3.306 0 .168.135.305.3.305Z" fill="#111"/>
    <path d="M39.236 16.573a49.68 49.68 0 0 0-4.353 4.546 27.484 27.484 0 0 1-4.54 4.275c-.19-.463-1.395-1.326-1.395-1.326s-2.685-1.876-4.447-3.35a27.527 27.527 0 0 1-2.685-2.618l-1.71-.096c2.468 3.68 6.085 6.397 10.262 7.712.735-.122 2.805-1.631 4.353-2.861a49.809 49.809 0 0 0 5.13-5.156 5.597 5.597 0 0 0 .976-1.745c-.975.331-1.591.62-1.591.62ZM22.175 22.54s-3.258-1.256-4.456-1.596a3.158 3.158 0 0 0-1.789-.235 3.19 3.19 0 0 0-1.631.785 4.418 4.418 0 0 0-1.099 1.515 4.499 4.499 0 0 0-.38 1.844c.18.405.318.83.41 1.265.043.419-1.027.375-1.71.375-.685 0-.787-1.256-.249-2.73.42-1.135.942-2.227 1.557-3.264C8.168 22.977 0 28.7 0 28.7a38.402 38.402 0 0 1 7.004.21c4.49.462 4.276 4.074 4.276 4.074a32.466 32.466 0 0 1 4.815-.968c1.813-.123 1.94 1.85 1.94 1.85l.454 3.367c.688-.76 1.447-1.45 2.266-2.06a5.111 5.111 0 0 1 3.746-1.133l-2.326-11.5Z" fill="#F06351"/>
  </symbol>
  <!--Логотип (текст)-->
  <symbol id="logo-text" width="101" height="18" viewBox="0 0 101 18" fill="currentColor" xmlns="http://www.w3.org/2000/svg">
  <g clip-path="url(#a)" fill="currentColor">
    <path d="M1.264 16.538A6.865 6.865 0 0 1 0 12.231V5.846a6.95 6.95 0 0 1 1.185-4.384C2.055.462 3.398 0 5.374 0s3.24.462 4.03 1.308a5.422 5.422 0 0 1 1.186 3.769v1.538H6.718V4.846a3.693 3.693 0 0 0-.238-1.538 1.12 1.12 0 0 0-.456-.473 1.163 1.163 0 0 0-.65-.143c-.553 0-.948.154-1.106.539a4.846 4.846 0 0 0-.237 1.692v8.23a3.111 3.111 0 0 0 .316 1.616c.158.385.553.539 1.106.539s.87-.154 1.027-.539c.18-.52.26-1.067.238-1.615v-1.846h3.872v1.538a5.775 5.775 0 0 1-1.185 3.846c-.79.923-2.134 1.385-4.031 1.385-1.897-.077-3.32-.539-4.11-1.539ZM15.253.23h4.504l3.32 17.54H19.44l-.632-3.693h-2.608l-.632 3.692h-3.715L15.253.231Zm3.24 11.54-.948-6.847-.949 6.846h1.897ZM25.843 3.154h-2.687V.23h9.404v2.846h-2.687v14.692h-4.03V3.154ZM39.752.23h6.955v1.847h-4.505v5.77h3.635v1.768h-3.635v6.462h4.505v1.77h-7.034V.23h.079ZM48.761.23H50.5l5.137 11.616V.231h2.055v17.538h-1.58l-5.217-12v12h-2.134V.231ZM60.063.23h6.954v1.847h-4.504v5.77h3.635v1.768h-3.635v6.462h4.504v1.77h-6.954V.23ZM69.072.23h3.635a6.451 6.451 0 0 1 4.03 1.078c.87.692 1.265 1.923 1.265 3.538 0 2.23-.71 3.616-2.212 4.077l2.528 8.77h-2.45l-2.37-8.231h-1.976v8.23h-2.529V.231h.079Zm3.477 7.54a3.524 3.524 0 0 0 2.292-.616c.474-.385.711-1.154.711-2.308a4.848 4.848 0 0 0-.237-1.692 1.975 1.975 0 0 0-.869-.923 3.69 3.69 0 0 0-1.739-.308h-1.106v5.77h.948v.076ZM81.163 16.462A7.613 7.613 0 0 1 80.058 12V6.154c-.02-1.115.114-2.227.395-3.308a3.916 3.916 0 0 1 1.502-2c.882-.508 1.9-.75 2.924-.692 1.66 0 2.845.384 3.556 1.23a5.77 5.77 0 0 1 1.107 3.847v.615H87.17v-.538a11.03 11.03 0 0 0-.158-1.923 1.533 1.533 0 0 0-.633-1A2.493 2.493 0 0 0 84.878 2a2.417 2.417 0 0 0-1.58.462 1.703 1.703 0 0 0-.632 1.23 14.01 14.01 0 0 0-.159 2.077v6.539a6.818 6.818 0 0 0 .474 2.923c.316.615.949.846 1.897.846a1.96 1.96 0 0 0 1.092-.182c.337-.165.617-.422.805-.741a6.908 6.908 0 0 0 .553-3.077v-1.23h-2.292v-1.77h4.584v8.692h-1.58l-.238-2a3.143 3.143 0 0 1-1.226 1.658 3.288 3.288 0 0 1-2.014.573 4.045 4.045 0 0 1-1.899-.352 3.932 3.932 0 0 1-1.5-1.186ZM94.678 11.615 90.805.308h2.371l2.766 8.461L98.63.308H101l-3.873 11.307v6.154h-2.37v-6.154h-.08Z"/>
  </g>
  <defs>
  <clipPath id="a">
    <rect width="101" height="18" fill="#fff"/>
    </clipPath>
    </defs>
  </symbol>
</svg>
